<?xml version="1.0" encoding="UTF-8" standalone="no"?>
<!-- Created with Inkscape (http://www.inkscape.org/) -->

<svg
   width="79.375mm"
   height="79.375mm"
   viewBox="0 0 79.375 79.375"
   version="1.1"
   id="svg5"
   xml:space="preserve"
   inkscape:version="1.2.2 (732a01da63, 2022-12-09)"
   sodipodi:docname="logo.svg"
   inkscape:export-filename="logo.png"
   inkscape:export-xdpi="163.84"
   inkscape:export-ydpi="163.84"
   xmlns:inkscape="http://www.inkscape.org/namespaces/inkscape"
   xmlns:sodipodi="http://sodipodi.sourceforge.net/DTD/sodipodi-0.dtd"
   xmlns:xlink="http://www.w3.org/1999/xlink"
   xmlns="http://www.w3.org/2000/svg"
   xmlns:svg="http://www.w3.org/2000/svg"><sodipodi:namedview
     id="namedview7"
     pagecolor="#ffffff"
     bordercolor="#000000"
     borderopacity="0.25"
     inkscape:showpageshadow="2"
     inkscape:pageopacity="0.0"
     inkscape:pagecheckerboard="0"
     inkscape:deskcolor="#d1d1d1"
     inkscape:document-units="mm"
     showgrid="false"
     inkscape:zoom="1.4142136"
     inkscape:cx="-107.83378"
     inkscape:cy="115.96551"
     inkscape:window-width="1920"
     inkscape:window-height="1017"
     inkscape:window-x="-8"
     inkscape:window-y="-8"
     inkscape:window-maximized="1"
     inkscape:current-layer="layer2" /><defs
     id="defs2"><rect
       x="74.953319"
       y="210.01071"
       width="112.42998"
       height="55.507882"
       id="rect13366" /><rect
       x="82.731493"
       y="212.13203"
       width="85.913474"
       height="35.35534"
       id="rect13261" /><rect
       x="44.547727"
       y="224.5064"
       width="158.74547"
       height="58.336309"
       id="rect13252" /><inkscape:path-effect
       effect="spiro"
       id="path-effect13248"
       is_visible="true"
       lpeversion="1" /><inkscape:path-effect
       effect="spiro"
       id="path-effect13227"
       is_visible="true"
       lpeversion="1" /><rect
       x="52.679455"
       y="169.35207"
       width="178.89802"
       height="30.759142"
       id="rect12407" /><rect
       x="101.94407"
       y="89.615951"
       width="147.45031"
       height="115.25957"
       id="rect4256" /><inkscape:path-effect
       effect="spiro"
       id="path-effect4200"
       is_visible="true"
       lpeversion="1" /><inkscape:path-effect
       effect="fill_between_many"
       method="originald"
       linkedpaths="#path232,0,1|#path4198,0,1"
       id="path-effect4448" /></defs><g
     inkscape:groupmode="layer"
     id="layer2"
     inkscape:label="Layer 2"
     transform="translate(-62.860886,-74.570564)"
     style="display:inline"
     inkscape:highlight-color="#c3e33e"><path
       style="color:#000000;display:inline;fill:#4b4bff;fill-opacity:1;stroke-width:2.02;-inkscape-stroke:none"
       d="m 138.16285,114.08871 a 35.344723,35.532906 0 0 1 -35.34473,35.5329 35.344723,35.532906 0 0 1 -35.34472,-35.5329 35.344723,35.532906 0 0 1 35.34472,-35.532909 35.344723,35.532906 0 0 1 35.34473,35.532909 z"
       id="path9545"
       inkscape:label="Blue" /><path
       style="display:inline;fill:#ffffff;fill-opacity:1;stroke:none;stroke-width:2.02;stroke-dasharray:none;stroke-opacity:1"
       d="m 67.538103,110.02387 0.65481,12.2543 4.490128,10.28988 6.828736,8.51253 8.699623,5.33203 10.476966,3.46114 13.657474,-1.30962 13.09621,-6.5481 7.76417,-9.54152 4.58368,-12.34786 0.28063,-11.4124 -3.08696,-9.728615 -1.30962,11.131775 -3.92887,7.20291 -7.29645,5.79975 -7.29646,2.99342 -10.66406,-0.28063 -13.28329,-5.61266 -9.9157,-7.29646 -8.138357,-2.71279 z"
       id="path11553"
       inkscape:label="White" /><path
       style="color:#000000;display:inline;fill:#e4e4e4;fill-opacity:1;-inkscape-stroke:none"
       d="m 102.81836,77.544922 c -20.069083,0 -36.355469,16.375753 -36.355469,36.542968 0,20.16722 16.286386,36.54297 36.355469,36.54297 20.06908,0 36.35351,-16.37575 36.35351,-36.54297 0,-20.167215 -16.28443,-36.542968 -36.35351,-36.542968 z m 0,2.021484 c 18.97158,0 34.33398,15.440176 34.33398,34.521484 0,19.08131 -15.3624,34.52344 -34.33398,34.52344 -18.971582,0 -34.333985,-15.44213 -34.333985,-34.52344 0,-19.081308 15.362403,-34.521484 34.333985,-34.521484 z"
       id="path9547"
       inkscape:label="Border" /><path
       style="display:inline;fill:#e4e4e4;fill-opacity:0;stroke:#e4e4e4;stroke-width:2.00706;stroke-dasharray:none;stroke-opacity:1"
       d="m 134.29488,97.783032 c 1.39168,6.962068 -0.51896,14.511228 -5.05502,19.973038 -4.53606,5.46181 -11.60606,8.72609 -18.70529,8.63641 -1.09111,-0.0138 -2.18073,-0.10228 -3.26219,-0.24768 -7.802162,-1.04902 -14.934868,-5.02195 -21.204161,-9.78327 -0.994708,-0.75545 -1.974048,-1.53313 -3.011243,-2.2291 -4.491538,-3.01386 -10.052501,-4.3972 -15.432619,-3.839"
       id="path4198"
       inkscape:original-d="m 134.29488,97.783032 c -7.90425,9.412018 -15.85554,19.197958 -23.76031,28.609448 -7.90478,9.4115 -2.17453,-0.16488 -3.26219,-0.24768 -1.08765,-0.0828 -14.506795,-5.81623 -21.204161,-9.78327 -1.074493,-0.63645 -1.881629,-1.69658 -3.011243,-2.2291 -4.794888,-2.26041 -10.288148,-2.55907 -15.432619,-3.839"
       inkscape:path-effect="#path-effect4200"
       sodipodi:nodetypes="cssaac"
       inkscape:label="Split" /><text
       xml:space="preserve"
       transform="matrix(0.25334408,0,0,0.22931244,65.43561,74.644735)"
       id="text4254"
       style="font-style:normal;font-variant:normal;font-weight:bold;font-stretch:normal;font-size:97.7026px;font-family:'Liberation Sans';-inkscape-font-specification:'Liberation Sans Bold';letter-spacing:1.48647px;white-space:pre;shape-inside:url(#rect4256);display:inline;fill:#ffffff;fill-opacity:1;stroke:#ffffff;stroke-width:7.63465;stroke-dasharray:none;stroke-opacity:1"
       inkscape:label="TC"><tspan
         x="101.94336"
         y="177.62128"
         id="tspan13448">TC</tspan></text><path
       style="display:inline;fill:#e4e4e4;fill-opacity:0;stroke:#e4e4e4;stroke-width:2.00706;stroke-dasharray:none;stroke-opacity:0"
       d="m 71.646763,118.80596 c 3.722242,1.66459 7.320571,3.60619 10.755402,5.80344 5.373806,3.4376 10.43733,7.54591 16.451228,9.6738 5.181257,1.83328 10.859487,2.08375 16.264857,1.08958 8.11753,-1.49299 15.68603,-5.81721 21.0943,-12.05211"
       id="path13244"
       inkscape:original-d="m 71.646763,118.80596 c 5.144471,1.27993 7.206428,3.80339 10.755402,5.80344 5.542081,3.12327 10.37235,7.79851 16.451228,9.6738 5.192317,1.60179 10.969377,2.30769 16.264857,1.08958 7.89206,-1.81541 13.19005,-2.64009 21.0943,-12.05211"
       inkscape:path-effect="#path-effect13248"
       sodipodi:nodetypes="caaac"
       inkscape:label="Bischberg" /><text
       xml:space="preserve"
       id="text13364"
       style="font-style:normal;font-variant:normal;font-weight:bold;font-stretch:normal;font-size:7.05556px;font-family:'Liberation Sans';-inkscape-font-specification:'Liberation Sans Bold';white-space:pre;fill:#4b4bff;fill-opacity:1;stroke:none;stroke-width:7.63465;stroke-dasharray:none;stroke-opacity:1"
       inkscape:label="Bischberg e.V."><textPath
         xlink:href="#path13244"
         id="textPath13370"><tspan
           id="tspan13368"
           style="font-size:9.87778px;fill:#4b4bff;fill-opacity:1">Bischberg e.V.</tspan></textPath></text></g></svg>
